<?xml version="1.0" encoding="UTF-8" standalone="no"?>
<svg width="1074px" height="1069px" viewBox="0 0 1074 1069" version="1.1" xmlns="http://www.w3.org/2000/svg" xmlns:xlink="http://www.w3.org/1999/xlink" xmlns:sketch="http://www.bohemiancoding.com/sketch/ns">
    <!-- Generator: Sketch 3.4.4 (17249) - http://www.bohemiancoding.com/sketch -->
    <title>FitHubLogo</title>
    <desc>Created with Sketch.</desc>
    <defs></defs>
    <g id="Page-1" stroke="none" stroke-width="1" fill="none" fill-rule="evenodd" sketch:type="MSPage">
        <path d="M241.772459,821.531427 L244.112133,776.887803 C261.233128,776.032114 276.533119,778.84847 290.952718,796.788808 C319.971862,832.893364 351.442172,897.673383 427.325331,897.001529 C448.120431,896.817413 466.201707,892.751625 481.494877,886.945467 C481.125108,896.5114 480.957295,906.525101 481,917.003967 C479.391671,960.562833 478.56083,999.419434 478.436251,1034.07323 C473.010995,1055.65475 465.641824,1069.39163 455.904465,1067.91665 C197.806387,1028.82106 0,806.010608 0,537 C0,240.423089 240.423089,0 537,0 C833.576911,0 1074,240.423089 1074,537 C1074,753.63067 945.725189,940.301152 760.988179,1025.19883 C744.644236,1032.70985 734.624864,1041.86899 730.473623,983.285399 C730.359458,962.511628 730.065705,940.44435 729.584595,917.003967 C729.584595,830.951411 716.774257,776.269504 694.574929,743.322217 L729.479732,740.891936 C839.67271,733.219564 929,637.460785 929,527.008566 L929,502.991434 C929,455.802443 912.732876,410.84065 885.525649,373.980613 C914.603212,309.416875 876.026704,216 876.026704,216 C876.026704,216 782.39003,225.461878 741.128509,284.972032 C737.435482,284.406514 733.715609,283.939552 729.971591,283.574123 C729.971591,283.574123 644.106649,273.74674 601,273.74674 C558.770297,273.74674 472.0496,283.607229 472.0496,283.607229 C469.028778,283.895293 466.023688,284.249763 463.035746,284.669063 C421.667053,225.429745 328.34837,216 328.34837,216 C328.34837,216 290.579889,307.460157 317.953373,371.931889 C289.856826,409.180654 273,454.950546 273,502.991434 L273,527.008566 C273,637.452986 362.349393,732.875743 472.567454,740.123839 L517.947057,743.108066 C509.812308,754.557975 502.824691,768.645269 497.184922,785.777716 C494.201913,784.972636 463.67923,777.171207 439.102232,788.03657 C413.235341,799.472188 400.890193,832.13674 390.565081,829.162361 C350.788866,817.703936 337.980851,740.085813 270.831419,741.390367 C262.36538,741.554842 253.981713,742.163676 245.882032,743.116115 L247.560553,711.088017 L262.675174,711.880141 C277.471334,712.655574 290.097481,701.287746 290.87304,686.489206 L291.859269,667.670833 C292.634784,652.873135 281.267642,640.247028 266.469949,639.471514 L185.862216,635.247042 C171.066055,634.471608 158.439908,645.839436 157.66435,660.637976 L156.67812,679.456349 C155.902606,694.254048 167.269748,706.880154 182.06744,707.655668 L194.760209,708.320868 L192.280528,755.636013 C169.284097,764.573972 161.506893,775.088883 185.531694,778.89366 C187.382373,779.186749 189.213015,779.422597 191.024197,779.608235 L188.972115,818.764278 L175.483441,818.057367 C160.68728,817.281933 148.061133,828.649761 147.285575,843.448301 L146.299346,862.266674 C145.523831,877.064373 156.890973,889.690479 171.688665,890.465994 L252.296399,894.690466 C267.092559,895.4659 279.718706,884.098072 280.494265,869.299532 L281.480494,850.481159 C282.256009,835.68346 270.888867,823.057353 256.091174,822.281839 L241.772459,821.531427 Z" id="Oval-1" fill="#FFFFFF" sketch:type="MSShapeGroup"></path>
    </g>
</svg>